<?xml version="1.0" encoding="UTF-8"?>
<svg id="Layer_2" data-name="Layer 2" xmlns="http://www.w3.org/2000/svg" viewBox="0 0 191.8 109.38">
  <defs>
    <style>
      .cls-1 {
        fill: #f7f49a;
      }
    </style>
  </defs>
  <g id="Layer_4" data-name="Layer 4">
    <path class="cls-1" d="M0,1.1C0,.49.55,0,1.16,0h1.52l26.41,30.55h.06V1.76c0-.61.49-1.16,1.16-1.16h3.89c.61,0,1.16.55,1.16,1.16v40.95c0,.61-.55,1.09-1.16,1.09h-1.58L6.21,12.41h-.06v29.63c0,.61-.49,1.16-1.16,1.16H1.16C.55,43.21,0,42.66,0,42.05V1.1ZM41.44,41.62L60.12.67c.18-.37.73-.67,1.03-.67h.61c.3,0,.85.3,1.03.67l18.56,40.95c.37.79-.12,1.58-1.03,1.58h-3.83c-.73,0-1.16-.37-1.4-.91l-3.77-8.34h-19.9c-1.22,2.8-2.49,5.54-3.71,8.34-.18.43-.67.91-1.4.91h-3.83c-.91,0-1.4-.79-1.03-1.58ZM69.01,28.72l-7.49-16.67h-.3l-7.42,16.67h15.21ZM91.04,6.33h-9.92c-.67,0-1.16-.55-1.16-1.16V1.76c0-.61.49-1.16,1.16-1.16h26.17c.67,0,1.16.55,1.16,1.16v3.41c0,.61-.49,1.16-1.16,1.16h-9.92v35.72c0,.61-.55,1.16-1.16,1.16h-4.02c-.61,0-1.16-.55-1.16-1.16V6.33ZM114.46,1.76c0-.61.55-1.16,1.16-1.16h4.08c.67,0,1.16.55,1.16,1.16v25.13c0,6.09,3.89,10.83,10.1,10.83s10.22-4.69,10.22-10.71V1.76c0-.61.49-1.16,1.16-1.16h4.08c.61,0,1.16.55,1.16,1.16v25.56c0,9.25-7,16.49-16.61,16.49s-16.49-7.24-16.49-16.49V1.76ZM158.83,1.76c0-.61.49-1.16,1.16-1.16h16.55c7.3,0,13.27,5.78,13.27,13.02,0,5.6-3.71,10.22-9.01,12.35l8.34,15.46c.43.79,0,1.76-1.04,1.76h-4.75c-.49,0-.85-.3-.97-.55l-8.09-16.13h-9.19v15.52c0,.61-.55,1.16-1.16,1.16h-3.96c-.67,0-1.16-.55-1.16-1.16V1.76ZM176.05,21.3c3.96,0,7.42-3.35,7.42-7.55,0-3.96-3.47-7.24-7.42-7.24h-10.83v14.79h10.83ZM0,53.74c0-.82.65-1.55,1.47-1.55h18.79c15.77,0,28.68,12.83,28.68,28.51s-12.91,28.68-28.68,28.68H1.47c-.82,0-1.47-.74-1.47-1.55v-54.09ZM19.12,101.62c12.01,0,20.75-8.82,20.75-20.92s-8.74-20.75-20.75-20.75h-10.79v41.67h10.79ZM52.62,107.26l25.08-54.99c.25-.49.98-.9,1.39-.9h.82c.41,0,1.14.41,1.39.9l24.92,54.99c.49,1.06-.16,2.12-1.39,2.12h-5.15c-.98,0-1.55-.49-1.88-1.23l-5.07-11.19h-26.72c-1.63,3.76-3.35,7.44-4.98,11.19-.25.57-.9,1.23-1.88,1.23h-5.15c-1.22,0-1.88-1.06-1.39-2.12ZM89.63,89.94l-10.05-22.39h-.41l-9.97,22.39h20.43ZM121.49,81.85l-19.12-27.29c-.65-1.06,0-2.37,1.31-2.37h6.05c.65,0,1.06.41,1.31.74l14.79,20.83,14.79-20.83c.25-.33.74-.74,1.31-.74h6.13c1.31,0,1.96,1.31,1.31,2.37l-19.36,27.21v26.06c0,.82-.74,1.55-1.55,1.55h-5.39c-.9,0-1.55-.74-1.55-1.55v-25.98ZM191.21,61.65c-.7-2.39-3.6-5.5-7.33-6.89-2.7-1-6.34-.5-7.5-1.03-.16-.07-.28-.52-.71-.71-3.35-1.41-6.03-.98-9.01.87-.18.11-1.12.7-1.18.75-3.29,2.59-6.18,9.38-6.47,13.45-.12,1.62-1.13,5.64,4.99,15.47,1.15,1.85,2.69,3.4,3.52,5.6.88,2.32,1.35,4.86-.78,6.57-.25.2-1.03.41-1.24.5-.07.03-2.09.36-3.1.18-.65-.12-4.18-1.11-5.01-1.06-4.39.24-7.27,4.81-8.58,8.77,0,.01,0,.03-.01.04-.75,2.3.8,4.72,3.2,5.04.67.09,1.36.14,2.05.16.38.01.76-.03,1.13-.12,5.84-1.46,13.08-1.1,17.91-5.18,1.22-1.04,3-2.67,3.64-3.79,1.82-3.19,2.08-4.46,2.25-7.18.27-4.19-4.41-11.1-6.61-13.56s-2.49-2.56-3.81-4.48c-.48-.7-1.76-3.58-2.01-5.04-.12-.68.12-3.04.87-4.57.52-1.06,1.58-1.53,1.69-1.57,1.3-.46,2.81.11,4.74-.67,1.59-.64,2.55-1.96,3.75-2.54,1.61-.77,5.91-.33,7.39.71,1.1.77,3.47,4.04,4.41,5.08.39.43,1.58,1.27,1.86.94,1.05-1.21.38-4.37-.03-5.77Z"/>
  </g>
</svg>